PathFileType	4	(X/Y/Z)	TVC_41_Cal_03_0_static_RCNL2025.trc
DataRate	CameraRate	NumFrames	NumMarkers	Units	OrigDataRate	OrigDataStartFrame	OrigNumFrames
100	100	8	27	mm	100	88	234
Frame#	Time	R_Shoulder			L_Shoulder			C7			J_Notch			R_Elbow			L_Elbow			R_Wrist			L_Wrist			R_Asis			L_Asis			R_Psis			L_Psis			Sacral			Thoracic			Sternum			R_Thigh_Lateral			R_Knee_Lateral			R_Shank_Lateral			R_Ankle_Lateral			R_Heel			R_Toe			L_Thigh_Lateral			L_Knee_Lateral			L_Shank_Lateral			L_Ankle_Lateral			L_Heel			L_Toe		
		X1	Y1	Z1	X2	Y2	Z2	X3	Y3	Z3	X4	Y4	Z4	X5	Y5	Z5	X6	Y6	Z6	X7	Y7	Z7	X8	Y8	Z8	X9	Y9	Z9	X10	Y10	Z10	X11	Y11	Z11	X12	Y12	Z12	X13	Y13	Z13	X14	Y14	Z14	X15	Y15	Z15	X16	Y16	Z16	X17	Y17	Z17	X18	Y18	Z18	X19	Y19	Z19	X20	Y20	Z20	X21	Y21	Z21	X22	Y22	Z22	X23	Y23	Z23	X24	Y24	Z24	X25	Y25	Z25	X26	Y26	Z26	X27	Y27	Z27
88	0.87000000	-282.750824	1276.786133	-68.738716	-289.538239	1249.475708	-404.747467	-359.402954	1310.124756	-234.360764	-223.229111	1221.840942	-229.122177	-247.217331	986.116821	-12.351736	-301.408539	951.395203	-445.201752	-187.192490	783.949615	-25.972818	-227.090736	758.610931	-454.141739	-224.177338	859.620972	-86.666084	-225.082825	859.774719	-331.449951	-359.205170	881.906433	-154.095367	-396.211395	883.643188	-242.492249	-377.708282	882.774811	-198.293808	-362.537964	1013.636658	-216.487701	-171.817520	1046.814209	-228.229889	-271.506805	640.786133	6.220540	-262.645386	412.666656	-58.200500	-296.614868	286.295197	-1.430795	-282.215088	73.409401	-65.132889	-317.876038	45.869480	-121.299332	-172.851547	45.627544	-39.977573	-315.950867	593.222717	-417.320892	-308.902588	409.260162	-339.802155	-312.805298	269.293243	-379.040466	-337.887970	66.750511	-300.234680	-376.183289	43.844166	-258.244659	-212.704788	39.481476	-289.427460
89	0.88000000	-282.773132	1276.794922	-68.719559	-289.461029	1249.536987	-404.757599	-359.322968	1310.121582	-234.420822	-223.092987	1221.875732	-229.093765	-247.053436	986.152588	-12.287135	-301.292236	951.412903	-445.274292	-186.894127	783.881836	-26.147741	-227.047462	758.550659	-454.079712	-224.085266	859.569885	-86.781578	-224.883362	859.815308	-331.428223	-359.217804	881.988220	-154.390579	-396.268890	883.645264	-242.548996	-377.743347	882.816742	-198.469788	-362.589417	1013.622498	-216.546646	-171.821335	1046.813843	-228.209778	-271.547607	640.725281	6.200444	-262.663147	412.670746	-58.210262	-296.529724	286.269989	-1.414720	-282.231018	73.459648	-65.071304	-317.826080	45.812115	-121.339973	-172.885925	45.616558	-40.194893	-315.884094	593.252625	-417.264130	-308.857452	409.235504	-339.781372	-312.806458	269.314636	-378.942932	-337.825073	66.601074	-300.217072	-376.109711	43.845665	-258.314056	-212.662308	39.457024	-289.424866
90	0.89000000	-282.732697	1276.783325	-68.724106	-289.423279	1249.552979	-404.797424	-359.298035	1310.111572	-234.453125	-223.218414	1221.696899	-228.785706	-246.992401	986.240967	-12.268160	-301.298523	951.447510	-445.305603	-186.717903	783.886139	-26.193407	-227.107353	758.625153	-454.218964	-224.162491	859.615295	-86.706970	-224.819336	859.819458	-331.475006	-358.962677	881.632874	-153.944962	-396.228760	883.543518	-242.625610	-377.595718	882.588196	-198.285286	-362.526093	1013.600098	-216.585434	-171.807541	1046.837402	-228.237183	-271.570862	640.731567	6.149692	-262.726624	412.679199	-58.382095	-296.383820	286.348175	-1.376382	-282.219574	73.464767	-65.098679	-317.880707	45.774368	-121.313576	-172.883087	45.609348	-40.225201	-315.802460	593.201233	-417.240173	-308.860596	409.238892	-339.769592	-312.776306	269.319000	-379.090057	-337.919586	66.775963	-300.340546	-376.056854	43.734226	-258.319214	-212.647812	39.404263	-289.394196
91	0.90000000	-282.653015	1276.836426	-68.803558	-289.362213	1249.563721	-404.867310	-359.302155	1310.094238	-234.448685	-223.111008	1221.878540	-229.093628	-247.013000	986.266785	-12.272150	-301.252380	951.351196	-445.466766	-186.965752	784.061279	-25.905583	-227.079674	758.678833	-454.249100	-224.223434	859.646179	-86.694092	-224.913712	859.816345	-331.368652	-358.766357	881.325256	-153.703339	-396.218750	883.512756	-242.630768	-377.492554	882.419006	-198.167053	-362.485748	1013.542664	-216.619904	-171.881149	1046.751343	-227.886642	-271.582489	640.762451	6.193082	-262.764038	412.721527	-58.406292	-296.627777	286.380035	-1.394134	-282.259521	73.516243	-65.063293	-317.896118	45.823360	-121.361641	-172.904755	45.490189	-40.091339	-315.814240	593.163269	-417.324585	-308.827179	409.236115	-339.804901	-312.747742	269.307892	-378.993561	-337.901245	66.709801	-300.180603	-376.190094	43.749565	-258.234528	-212.647507	39.389744	-289.438171
92	0.91000000	-282.618073	1276.794189	-68.735863	-289.279480	1249.593384	-404.844910	-359.296967	1310.146484	-234.440567	-222.996353	1222.032715	-229.162750	-246.876785	986.335327	-12.132774	-301.192383	951.512268	-445.458008	-186.817436	783.927673	-26.078363	-227.081345	758.566742	-454.207626	-224.230240	859.651123	-86.674614	-224.862213	859.885010	-331.468811	-358.748840	881.367859	-153.649384	-396.235748	883.581299	-242.584305	-377.492294	882.474579	-198.116844	-362.471466	1013.612549	-216.637878	-171.716614	1046.899414	-228.112259	-271.684357	640.721558	6.128781	-262.779358	412.682343	-58.375694	-296.695587	286.333801	-1.420623	-282.229248	73.423820	-65.063911	-317.886627	45.791145	-121.314148	-172.959473	45.532551	-40.195553	-315.739655	593.181580	-417.283356	-308.804382	409.267548	-339.813416	-312.813232	269.351440	-378.957306	-337.971130	66.784843	-300.349518	-376.238190	43.820705	-258.241577	-212.618057	39.387123	-289.377533
93	0.92000000	-282.605682	1276.837280	-68.738556	-289.129456	1249.659790	-404.832367	-359.194916	1310.114014	-234.531631	-222.813934	1222.100098	-229.189590	-246.723206	986.342773	-12.100730	-301.230469	951.585754	-445.462860	-186.910309	784.089996	-26.001986	-227.069008	758.592834	-454.297028	-224.246216	859.672974	-86.663582	-224.927628	859.844543	-331.327942	-358.788116	881.379272	-153.708115	-396.211700	883.654297	-242.625427	-377.499908	882.516785	-198.166771	-362.474213	1013.639771	-216.658493	-171.620911	1046.973755	-228.233688	-271.687592	640.744324	6.080371	-262.764038	412.655487	-58.363289	-296.661133	286.332397	-1.462601	-282.174347	73.467476	-65.120583	-317.841278	45.848701	-121.335960	-173.026245	45.551785	-40.214710	-315.664673	593.224304	-417.314606	-308.761749	409.244629	-339.827240	-312.789764	269.364929	-379.042084	-337.876740	66.820129	-300.402283	-376.210724	43.889862	-258.257843	-212.609558	39.433823	-289.370789
94	0.93000000	-282.600586	1276.875977	-68.716774	-289.073730	1249.730835	-404.771576	-359.204773	1310.154907	-234.515030	-222.857513	1221.975220	-229.088928	-246.543823	986.148499	-12.207859	-301.160217	951.646912	-445.527252	-186.961578	784.075287	-25.975485	-227.080330	758.646729	-454.358902	-224.206100	859.630188	-86.699211	-224.885483	859.949219	-331.306488	-358.807770	881.430420	-153.723923	-396.131409	883.666565	-242.669098	-377.469589	882.548492	-198.196510	-362.429626	1013.611633	-216.728210	-171.617477	1046.953735	-228.180283	-271.588165	640.864624	6.126708	-262.748657	412.667603	-58.379044	-296.700775	286.349976	-1.383350	-282.214661	73.466660	-65.070442	-317.933014	45.864204	-121.342140	-172.891327	45.527462	-40.033920	-315.655212	593.230896	-417.367950	-308.793915	409.227020	-339.806854	-312.776611	269.291168	-379.071838	-337.954071	66.838188	-300.385925	-376.241638	43.894657	-258.263855	-212.611069	39.398396	-289.412964
95	0.94000000	-282.578461	1276.893188	-68.690964	-288.934753	1249.750610	-404.744354	-359.221985	1310.198608	-234.472855	-222.892044	1221.974731	-229.094910	-246.610168	986.296387	-12.242007	-301.076813	951.631592	-445.614594	-186.753860	783.878510	-26.196543	-227.042130	758.891052	-454.586349	-224.107620	859.568726	-86.765213	-224.891068	859.921082	-331.320282	-358.810608	881.426147	-153.740021	-396.133820	883.680237	-242.657898	-377.472214	882.553192	-198.198959	-362.463318	1013.645630	-216.676544	-171.537018	1046.825806	-228.154190	-271.497345	640.814819	6.104328	-262.660645	412.656677	-58.397385	-296.568573	286.300049	-1.373554	-282.181183	73.534706	-65.093872	-317.892517	45.864151	-121.369537	-172.825958	45.586884	-40.262878	-315.540619	593.259277	-417.375793	-308.757751	409.197083	-339.818481	-312.798920	269.339386	-378.988739	-337.865814	66.650642	-300.249786	-376.164856	43.875515	-258.315063	-212.592575	39.404762	-289.394348
